<mxfile host="www.draw.io" modified="2020-05-25T05:24:31.927Z" agent="5.0 (Macintosh; Intel Mac OS X 10_14_6) AppleWebKit/537.36 (KHTML, like Gecko) Chrome/83.0.4103.61 Safari/537.36" etag="0x31Jt-4Q8_8UJhNhtZe" version="13.1.3" type="github">
  <diagram id="C0adtZawv3__-3Yso5-N" name="Page-1">
    <mxGraphModel dx="2029" dy="1131" grid="1" gridSize="10" guides="1" tooltips="1" connect="1" arrows="1" fold="1" page="1" pageScale="1" pageWidth="827" pageHeight="1169" math="0" shadow="0">
      <root>
        <mxCell id="0" />
        <mxCell id="1" parent="0" />
        <mxCell id="F39sRsljc0ifnQZl1Yur-10" value="MESI" style="rounded=0;whiteSpace=wrap;html=1;" vertex="1" parent="1">
          <mxGeometry x="30" y="200" width="420" height="90" as="geometry" />
        </mxCell>
        <mxCell id="F39sRsljc0ifnQZl1Yur-2" value="CPU1" style="rounded=1;whiteSpace=wrap;html=1;" vertex="1" parent="1">
          <mxGeometry x="270" y="60" width="160" height="40" as="geometry" />
        </mxCell>
        <mxCell id="F39sRsljc0ifnQZl1Yur-3" value="StoreBuffer" style="rounded=1;whiteSpace=wrap;html=1;" vertex="1" parent="1">
          <mxGeometry x="50" y="140" width="160" height="40" as="geometry" />
        </mxCell>
        <mxCell id="F39sRsljc0ifnQZl1Yur-4" value="StoreBuffer" style="rounded=1;whiteSpace=wrap;html=1;" vertex="1" parent="1">
          <mxGeometry x="270" y="140" width="160" height="40" as="geometry" />
        </mxCell>
        <mxCell id="F39sRsljc0ifnQZl1Yur-5" value="CPU0" style="rounded=1;whiteSpace=wrap;html=1;" vertex="1" parent="1">
          <mxGeometry x="50" y="60" width="160" height="40" as="geometry" />
        </mxCell>
        <mxCell id="F39sRsljc0ifnQZl1Yur-6" value="" style="endArrow=classic;html=1;exitX=0.5;exitY=1;exitDx=0;exitDy=0;entryX=0.5;entryY=0;entryDx=0;entryDy=0;" edge="1" parent="1" source="F39sRsljc0ifnQZl1Yur-5" target="F39sRsljc0ifnQZl1Yur-3">
          <mxGeometry width="50" height="50" relative="1" as="geometry">
            <mxPoint x="110" y="420" as="sourcePoint" />
            <mxPoint x="160" y="370" as="targetPoint" />
          </mxGeometry>
        </mxCell>
        <mxCell id="F39sRsljc0ifnQZl1Yur-7" value="Cache" style="rounded=1;whiteSpace=wrap;html=1;" vertex="1" parent="1">
          <mxGeometry x="50" y="220" width="160" height="40" as="geometry" />
        </mxCell>
        <mxCell id="F39sRsljc0ifnQZl1Yur-8" value="Memroy" style="rounded=1;whiteSpace=wrap;html=1;" vertex="1" parent="1">
          <mxGeometry x="30" y="320" width="420" height="40" as="geometry" />
        </mxCell>
        <mxCell id="F39sRsljc0ifnQZl1Yur-9" value="Cache" style="rounded=1;whiteSpace=wrap;html=1;" vertex="1" parent="1">
          <mxGeometry x="270" y="220" width="160" height="40" as="geometry" />
        </mxCell>
        <mxCell id="F39sRsljc0ifnQZl1Yur-11" value="" style="endArrow=classic;html=1;exitX=0.5;exitY=1;exitDx=0;exitDy=0;entryX=0.5;entryY=0;entryDx=0;entryDy=0;" edge="1" parent="1" source="F39sRsljc0ifnQZl1Yur-3" target="F39sRsljc0ifnQZl1Yur-7">
          <mxGeometry width="50" height="50" relative="1" as="geometry">
            <mxPoint x="140" y="110" as="sourcePoint" />
            <mxPoint x="140" y="150" as="targetPoint" />
          </mxGeometry>
        </mxCell>
        <mxCell id="F39sRsljc0ifnQZl1Yur-15" value="" style="endArrow=classic;html=1;exitX=0.5;exitY=1;exitDx=0;exitDy=0;" edge="1" parent="1" source="F39sRsljc0ifnQZl1Yur-2" target="F39sRsljc0ifnQZl1Yur-4">
          <mxGeometry width="50" height="50" relative="1" as="geometry">
            <mxPoint x="140" y="190" as="sourcePoint" />
            <mxPoint x="140" y="230" as="targetPoint" />
          </mxGeometry>
        </mxCell>
        <mxCell id="F39sRsljc0ifnQZl1Yur-16" value="" style="endArrow=classic;html=1;exitX=0.5;exitY=1;exitDx=0;exitDy=0;entryX=0.5;entryY=0;entryDx=0;entryDy=0;" edge="1" parent="1" source="F39sRsljc0ifnQZl1Yur-4" target="F39sRsljc0ifnQZl1Yur-9">
          <mxGeometry width="50" height="50" relative="1" as="geometry">
            <mxPoint x="150" y="200" as="sourcePoint" />
            <mxPoint x="300" y="190" as="targetPoint" />
          </mxGeometry>
        </mxCell>
        <mxCell id="F39sRsljc0ifnQZl1Yur-17" value="" style="endArrow=classic;html=1;exitX=0.25;exitY=1;exitDx=0;exitDy=0;entryX=0.25;entryY=0;entryDx=0;entryDy=0;" edge="1" parent="1" source="F39sRsljc0ifnQZl1Yur-10" target="F39sRsljc0ifnQZl1Yur-8">
          <mxGeometry width="50" height="50" relative="1" as="geometry">
            <mxPoint x="140" y="190" as="sourcePoint" />
            <mxPoint x="134" y="330" as="targetPoint" />
          </mxGeometry>
        </mxCell>
        <mxCell id="F39sRsljc0ifnQZl1Yur-18" value="" style="endArrow=classic;html=1;exitX=0.75;exitY=1;exitDx=0;exitDy=0;entryX=0.75;entryY=0;entryDx=0;entryDy=0;" edge="1" parent="1" source="F39sRsljc0ifnQZl1Yur-10" target="F39sRsljc0ifnQZl1Yur-8">
          <mxGeometry width="50" height="50" relative="1" as="geometry">
            <mxPoint x="145" y="300" as="sourcePoint" />
            <mxPoint x="155" y="330" as="targetPoint" />
          </mxGeometry>
        </mxCell>
        <mxCell id="F39sRsljc0ifnQZl1Yur-19" value="内存，线程共享" style="text;html=1;strokeColor=none;fillColor=none;align=center;verticalAlign=middle;whiteSpace=wrap;rounded=0;" vertex="1" parent="1">
          <mxGeometry x="540" y="320" width="170" height="40" as="geometry" />
        </mxCell>
        <mxCell id="F39sRsljc0ifnQZl1Yur-20" value="cache，使用MESI保证各CPU缓存的一致性" style="text;html=1;strokeColor=none;fillColor=none;align=center;verticalAlign=middle;whiteSpace=wrap;rounded=0;" vertex="1" parent="1">
          <mxGeometry x="500" y="220" width="250" height="50" as="geometry" />
        </mxCell>
        <mxCell id="F39sRsljc0ifnQZl1Yur-21" value="写缓冲区，CPU独享，FIFO" style="text;html=1;strokeColor=none;fillColor=none;align=center;verticalAlign=middle;whiteSpace=wrap;rounded=0;" vertex="1" parent="1">
          <mxGeometry x="500" y="135" width="250" height="50" as="geometry" />
        </mxCell>
        <mxCell id="F39sRsljc0ifnQZl1Yur-22" value="X86-TSO内存模型" style="text;html=1;strokeColor=none;fillColor=none;align=center;verticalAlign=middle;whiteSpace=wrap;rounded=0;" vertex="1" parent="1">
          <mxGeometry x="210" y="10" width="370" height="40" as="geometry" />
        </mxCell>
        <mxCell id="F39sRsljc0ifnQZl1Yur-23" value="寄存器，编译器可能会使用编译器对数据进行缓存" style="text;html=1;strokeColor=none;fillColor=none;align=center;verticalAlign=middle;whiteSpace=wrap;rounded=0;" vertex="1" parent="1">
          <mxGeometry x="500" y="60" width="250" height="45" as="geometry" />
        </mxCell>
      </root>
    </mxGraphModel>
  </diagram>
</mxfile>
